<svg id="svg" xmlns="http://www.w3.org/2000/svg" xmlns:xlink="http://www.w3.org/1999/xlink" width="50px" height="39px" viewBox="0, 0, 400,404.60526315789474">

<g id="svgg"><path id="path0" d="M174.013 61.883 C 166.053 62.142,150.066 62.680,138.487 63.077 L 117.434 63.800 112.829 68.593 C 110.296 71.230,106.147 75.600,103.608 78.305 C 101.070 81.010,94.536 87.961,89.089 93.750 C 70.060 113.974,70.094 109.772,88.816 127.280 C 91.891 130.156,96.634 134.595,99.355 137.143 C 120.144 156.615,122.699 159.006,138.651 173.929 L 153.289 187.622 153.289 231.142 L 153.289 274.662 170.200 291.582 C 179.502 300.888,186.914 308.700,186.672 308.942 C 186.430 309.184,182.151 309.501,177.162 309.646 C 172.174 309.792,161.689 310.197,153.863 310.547 C 146.037 310.898,137.391 311.184,134.650 311.184 L 129.665 311.184 123.896 305.757 C 118.587 300.763,114.019 296.438,100.658 283.759 C 87.833 271.588,86.935 271.127,83.347 274.872 C 80.557 277.784,80.933 280.190,84.704 283.544 C 86.423 285.073,91.678 289.937,96.382 294.354 C 101.086 298.771,109.646 306.767,115.404 312.122 L 125.873 321.860 135.799 321.447 C 165.274 320.222,193.639 319.692,194.301 320.353 C 195.278 321.330,202.186 321.235,203.190 320.230 C 203.826 319.594,213.213 319.365,244.605 319.220 L 285.197 319.032 306.414 297.842 C 329.731 274.556,329.564 274.787,325.864 270.924 C 322.119 267.016,322.120 267.015,300.329 288.816 L 280.600 308.553 251.813 308.553 C 235.980 308.553,223.026 308.366,223.026 308.138 C 223.026 307.774,231.352 298.774,245.465 283.882 C 253.214 275.705,255.921 272.354,255.921 270.937 C 255.921 269.408,253.662 267.078,238.158 252.613 C 220.484 236.125,218.907 234.653,213.507 229.605 C 210.603 226.891,206.968 223.443,205.429 221.941 L 202.632 219.211 202.632 207.789 L 202.632 196.367 242.798 136.012 C 264.890 102.817,283.182 75.658,283.448 75.658 C 283.714 75.658,291.908 83.651,301.657 93.421 C 321.201 113.007,321.558 113.250,325.299 109.510 C 329.111 105.698,329.140 105.737,305.716 82.381 L 284.459 61.184 236.473 61.297 C 210.081 61.360,181.974 61.623,174.013 61.883 M272.368 72.105 C 272.368 72.469,264.971 83.685,215.902 157.725 C 206.251 172.287,197.984 184.129,197.529 184.041 C 197.075 183.953,189.304 172.787,180.260 159.227 L 163.816 134.573 163.830 122.385 L 163.845 110.197 182.087 91.598 C 192.120 81.369,200.582 73.006,200.892 73.013 C 201.882 73.036,209.432 79.898,230.263 99.705 C 242.570 111.406,242.695 111.468,246.515 107.766 C 250.731 103.679,251.412 104.581,227.851 83.067 C 222.002 77.725,217.191 72.985,217.161 72.533 C 217.117 71.887,223.041 71.711,244.737 71.711 C 259.934 71.711,272.368 71.888,272.368 72.105 M169.896 88.985 L 153.289 105.602 153.289 111.721 C 153.289 115.616,153.051 117.694,152.634 117.436 C 151.376 116.658,123.698 74.851,124.058 74.270 C 124.257 73.948,128.325 73.645,133.098 73.597 C 137.871 73.549,146.365 73.306,151.974 73.057 C 157.582 72.808,167.646 72.551,174.337 72.486 L 186.503 72.368 169.896 88.985 M134.462 109.704 L 153.307 137.829 153.298 155.099 C 153.293 164.597,153.067 172.365,152.796 172.361 C 152.525 172.357,151.118 171.241,149.671 169.881 C 148.224 168.521,138.010 158.984,126.974 148.688 C 91.660 115.740,87.500 111.793,87.500 111.228 C 87.500 110.749,88.800 109.307,99.995 97.368 C 104.914 92.122,110.233 86.423,111.814 84.704 C 113.394 82.985,114.897 81.579,115.153 81.579 C 115.409 81.579,124.098 94.235,134.462 109.704 M177.699 174.178 C 184.631 184.581,190.719 193.571,191.227 194.156 C 191.925 194.959,192.105 196.936,191.964 202.209 L 191.776 209.197 189.474 207.091 C 184.005 202.089,168.542 187.640,166.283 185.421 L 163.816 182.998 163.816 169.131 C 163.816 160.583,164.061 155.263,164.456 155.263 C 164.808 155.263,170.767 163.775,177.699 174.178 M174.586 207.399 C 179.699 212.193,185.686 217.825,187.891 219.916 L 191.900 223.717 192.276 259.094 C 192.482 278.551,192.455 295.422,192.214 296.585 L 191.776 298.700 177.961 284.871 L 164.145 271.042 163.944 234.863 C 163.792 207.461,163.931 198.684,164.517 198.684 C 164.943 198.684,169.474 202.606,174.586 207.399 M204.733 235.691 C 205.216 236.143,209.900 240.505,215.141 245.385 C 220.383 250.264,227.039 256.506,229.934 259.255 C 232.829 262.004,236.752 265.675,238.651 267.414 C 243.383 271.745,244.145 270.187,229.934 285.242 C 229.211 286.008,224.050 291.567,218.466 297.594 C 208.901 307.918,208.174 308.553,205.907 308.553 L 203.501 308.553 203.068 290.296 C 202.434 263.620,202.525 234.868,203.242 234.868 C 203.578 234.868,204.249 235.238,204.733 235.691 M144.609 330.610 C 144.172 331.047,144.618 348.785,145.078 349.245 C 145.252 349.419,145.395 346.255,145.395 342.215 C 145.395 333.667,145.669 333.404,148.588 339.151 C 151.108 344.111,151.256 344.092,154.056 338.467 C 156.648 333.258,156.637 333.246,157.036 341.568 C 157.502 351.309,157.895 350.402,157.895 339.583 C 157.895 334.457,157.654 330.263,157.359 330.263 C 156.704 330.263,154.605 334.542,154.605 335.878 C 154.605 336.408,154.345 336.842,154.027 336.842 C 153.709 336.842,153.081 337.730,152.632 338.816 C 151.452 341.665,150.946 341.336,148.324 336.020 C 145.813 330.929,145.193 330.026,144.609 330.610 M168.860 330.702 C 167.959 331.602,168.472 333.359,170.030 334.715 C 170.916 335.484,172.399 337.774,173.327 339.802 C 175.310 344.138,175.594 344.062,178.354 338.455 C 180.964 333.154,181.030 333.231,181.283 341.809 C 181.590 352.257,182.237 350.971,182.237 339.912 C 182.237 328.741,182.121 328.595,178.618 335.315 C 175.423 341.444,175.282 341.452,172.382 335.652 C 169.813 330.516,169.494 330.067,168.860 330.702 M192.765 330.757 C 192.766 331.028,193.950 333.026,195.395 335.197 C 198.623 340.047,198.623 339.983,195.395 344.737 C 192.614 348.831,192.391 349.342,193.381 349.342 C 193.720 349.342,194.978 347.726,196.177 345.750 C 199.138 340.867,199.549 340.855,202.742 345.557 C 204.315 347.874,205.625 349.244,205.791 348.746 C 205.951 348.267,205.814 347.686,205.486 347.457 C 204.681 346.892,200.658 340.490,200.658 339.774 C 200.658 339.459,201.865 337.481,203.340 335.378 C 204.815 333.275,205.905 331.202,205.761 330.770 C 205.618 330.339,204.251 331.825,202.725 334.072 C 199.359 339.029,199.616 339.024,196.382 334.211 C 193.977 330.632,192.760 329.470,192.765 330.757 M217.107 330.757 C 217.109 331.028,218.292 333.026,219.737 335.197 C 222.965 340.047,222.965 339.983,219.737 344.737 C 216.984 348.791,216.737 349.342,217.677 349.342 C 217.991 349.342,219.362 347.566,220.724 345.395 C 223.750 340.568,223.458 340.561,226.963 345.531 C 228.547 347.777,229.951 349.290,230.084 348.894 C 230.216 348.497,229.126 346.462,227.662 344.372 C 224.414 339.735,224.414 340.163,227.670 335.393 C 229.139 333.241,230.228 331.145,230.091 330.734 C 229.954 330.323,228.594 331.825,227.068 334.072 C 223.675 339.068,223.756 339.066,220.632 334.216 C 218.325 330.636,217.102 329.435,217.107 330.757 M245.395 330.921 C 245.395 331.283,245.862 331.579,246.433 331.579 C 247.337 331.579,247.443 332.720,247.255 340.461 C 247.056 348.672,247.129 349.344,248.230 349.343 C 248.884 349.343,249.278 349.113,249.105 348.833 C 248.830 348.387,248.415 334.591,248.611 332.401 C 248.651 331.949,249.276 331.579,250.000 331.579 C 250.724 331.579,251.316 331.283,251.316 330.921 C 251.316 330.559,249.984 330.263,248.355 330.263 C 246.727 330.263,245.395 330.559,245.395 330.921 M270.264 331.081 C 271.749 331.796,271.775 331.986,271.580 340.577 C 271.429 347.259,271.577 349.344,272.204 349.343 C 272.821 349.342,273.026 347.127,273.026 340.461 C 273.026 333.166,273.196 331.579,273.974 331.579 C 274.496 331.579,275.105 331.283,275.329 330.921 C 275.582 330.512,274.414 330.280,272.243 330.308 C 269.198 330.346,268.944 330.446,270.264 331.081 " stroke="none" fill="#000000" fill-rule="evenodd"></path></g></svg>